<?xml version="1.0" encoding="UTF-8" standalone="no"?>
<!DOCTYPE svg PUBLIC "-//W3C//DTD SVG 1.1//EN" "http://www.w3.org/Graphics/SVG/1.1/DTD/svg11.dtd">
<svg width="100%" height="100%" viewBox="0 0 369 283" version="1.1" xmlns="http://www.w3.org/2000/svg" xmlns:xlink="http://www.w3.org/1999/xlink" xml:space="preserve" xmlns:serif="http://www.serif.com/" style="fill-rule:evenodd;clip-rule:evenodd;stroke-linejoin:round;stroke-miterlimit:2;">
    <g transform="matrix(1,0,0,1,-987.35,-1330.72)">
        <g>
            <g transform="matrix(0.906308,-0.422618,0.422618,0.906308,-532.77,547.439)">
                <text x="968.504px" y="1582.68px" style="font-family:'Righteous-Regular', 'Righteous';font-size:150px;">M<tspan x="1090.31px 1177.02px " y="1582.68px 1582.68px ">TL</tspan></text>
                <text x="968.504px" y="1628.51px" style="font-family:'Righteous-Regular', 'Righteous';font-size:45.833px;">A<tspan x="999.164px 1030.05px " y="1628.51px 1628.51px ">UT</tspan>HENTICITY</text>
            </g>
            <g transform="matrix(0.909524,-0.424118,0.382665,0.820627,-542.509,990.302)">
                <path d="M1511.39,1233.52C1511.66,1235.24 1511.81,1236.82 1511.81,1238.23C1511.81,1238.35 1511.81,1238.46 1511.81,1238.58C1511.81,1238.69 1511.81,1238.81 1511.81,1238.92C1511.81,1241.41 1511.35,1244.43 1510.57,1247.75C1518.77,1243.8 1527.86,1244.4 1533.49,1250.03C1527.2,1251.77 1519.02,1256.25 1512.16,1263.11C1510.66,1264.61 1509.28,1266.17 1508.01,1267.76C1512.1,1265.28 1517.19,1263.8 1522.72,1263.8C1536.15,1263.79 1547.06,1272.5 1547.07,1283.23C1541.39,1280.01 1532.43,1277.4 1522.73,1277.41C1516.75,1277.41 1511.07,1278.4 1506.25,1279.92L1515.55,1279.92C1516.75,1279.92 1517.72,1280.89 1517.72,1282.08L1517.72,1286.41C1517.72,1287.6 1516.75,1288.57 1515.55,1288.57L1498.57,1288.57C1497.83,1290.96 1497.34,1293.83 1497.34,1296.85C1497.34,1301.56 1498.53,1305.91 1500,1308.66C1497.73,1308.66 1495.66,1307.52 1494.09,1305.65C1492.53,1307.52 1490.46,1308.66 1488.19,1308.66C1489.66,1305.91 1490.85,1301.56 1490.85,1296.85C1490.85,1293.83 1490.36,1290.96 1489.62,1288.57L1475.85,1288.57C1475.92,1285.67 1476.17,1282.78 1476.62,1279.92L1481.2,1279.92C1479.77,1279.38 1478.35,1278.7 1476.97,1277.89C1477.86,1273.21 1479.27,1268.62 1481.2,1264.22C1482.03,1265.02 1482.88,1265.79 1483.73,1266.52C1483.18,1265.11 1482.64,1263.68 1482.12,1262.24C1484.98,1256.31 1488.84,1250.76 1493.7,1245.87C1498.94,1240.6 1504.94,1236.49 1511.39,1233.52ZM1467.53,1269.16C1461.19,1260.1 1460.92,1248.83 1467.48,1242.26C1468.36,1245.44 1469.94,1249.11 1472.18,1252.85C1469.86,1258.02 1468.32,1263.52 1467.53,1269.16ZM1476.91,1244.31C1476.57,1242.34 1476.38,1240.52 1476.38,1238.92C1476.38,1238.81 1476.38,1238.69 1476.38,1238.58C1476.38,1238.46 1476.38,1238.35 1476.38,1238.23C1476.38,1222.87 1494.09,1187.01 1494.09,1187.01C1494.09,1187.01 1503.15,1205.35 1508.32,1221.41C1499.18,1224.1 1490.74,1228.94 1483.74,1235.99C1481.17,1238.58 1478.89,1241.37 1476.91,1244.31Z"/>
            </g>
        </g>
    </g>
</svg>
